<mxfile host="app.diagrams.net" agent="Mozilla/5.0 (Windows NT 10.0; Win64; x64) AppleWebKit/537.36 (KHTML, like Gecko) Chrome/132.0.0.0 Safari/537.36 Edg/132.0.0.0" version="26.0.10">
  <diagram name="Page-1" id="_e4ZtdQ2h2oAVw93IZd9">
    <mxGraphModel dx="1112" dy="469" grid="1" gridSize="10" guides="1" tooltips="1" connect="1" arrows="1" fold="1" page="1" pageScale="1" pageWidth="850" pageHeight="1100" background="none" math="0" shadow="0">
      <root>
        <mxCell id="0" />
        <mxCell id="1" parent="0" />
        <mxCell id="54jklgDi4DltdrdWR9oT-10" style="edgeStyle=orthogonalEdgeStyle;rounded=0;orthogonalLoop=1;jettySize=auto;html=1;flowAnimation=1;shadow=0;" edge="1" parent="1" source="54jklgDi4DltdrdWR9oT-1" target="54jklgDi4DltdrdWR9oT-3">
          <mxGeometry relative="1" as="geometry" />
        </mxCell>
        <mxCell id="54jklgDi4DltdrdWR9oT-1" value="" style="points=[[0.13,0.02,0],[0.5,0,0],[0.87,0.02,0],[0.885,0.4,0],[0.985,0.985,0],[0.5,1,0],[0.015,0.985,0],[0.115,0.4,0]];verticalLabelPosition=bottom;sketch=0;html=1;verticalAlign=top;aspect=fixed;align=center;pointerEvents=1;shape=mxgraph.cisco19.laptop;fillColor=#005073;strokeColor=none;" vertex="1" parent="1">
          <mxGeometry x="40" y="360" width="110" height="77" as="geometry" />
        </mxCell>
        <mxCell id="54jklgDi4DltdrdWR9oT-2" value="" style="sketch=0;points=[[0,0,0],[0.25,0,0],[0.5,0,0],[0.75,0,0],[1,0,0],[0,1,0],[0.25,1,0],[0.5,1,0],[0.75,1,0],[1,1,0],[0,0.25,0],[0,0.5,0],[0,0.75,0],[1,0.25,0],[1,0.5,0],[1,0.75,0]];outlineConnect=0;fontColor=#232F3E;fillColor=#E7157B;strokeColor=#ffffff;dashed=0;verticalLabelPosition=bottom;verticalAlign=top;align=center;html=1;fontSize=12;fontStyle=0;aspect=fixed;shape=mxgraph.aws4.resourceIcon;resIcon=mxgraph.aws4.api_gateway;" vertex="1" parent="1">
          <mxGeometry x="240" y="200" width="78" height="78" as="geometry" />
        </mxCell>
        <mxCell id="54jklgDi4DltdrdWR9oT-11" style="edgeStyle=orthogonalEdgeStyle;rounded=0;orthogonalLoop=1;jettySize=auto;html=1;flowAnimation=1;shadow=0;" edge="1" parent="1" source="54jklgDi4DltdrdWR9oT-3" target="54jklgDi4DltdrdWR9oT-1">
          <mxGeometry relative="1" as="geometry" />
        </mxCell>
        <mxCell id="54jklgDi4DltdrdWR9oT-12" style="edgeStyle=orthogonalEdgeStyle;rounded=0;orthogonalLoop=1;jettySize=auto;html=1;flowAnimation=1;shadow=0;" edge="1" parent="1" source="54jklgDi4DltdrdWR9oT-3" target="54jklgDi4DltdrdWR9oT-5">
          <mxGeometry relative="1" as="geometry" />
        </mxCell>
        <mxCell id="54jklgDi4DltdrdWR9oT-3" value="" style="sketch=0;outlineConnect=0;fontColor=#232F3E;gradientColor=none;fillColor=#E7157B;strokeColor=none;dashed=0;verticalLabelPosition=bottom;verticalAlign=top;align=center;html=1;fontSize=12;fontStyle=0;aspect=fixed;pointerEvents=1;shape=mxgraph.aws4.endpoint;" vertex="1" parent="1">
          <mxGeometry x="240" y="359" width="78" height="78" as="geometry" />
        </mxCell>
        <mxCell id="54jklgDi4DltdrdWR9oT-4" value="" style="sketch=0;points=[[0,0,0],[0.25,0,0],[0.5,0,0],[0.75,0,0],[1,0,0],[0,1,0],[0.25,1,0],[0.5,1,0],[0.75,1,0],[1,1,0],[0,0.25,0],[0,0.5,0],[0,0.75,0],[1,0.25,0],[1,0.5,0],[1,0.75,0]];outlineConnect=0;fontColor=#232F3E;fillColor=#ED7100;strokeColor=#ffffff;dashed=0;verticalLabelPosition=bottom;verticalAlign=top;align=center;html=1;fontSize=12;fontStyle=0;aspect=fixed;shape=mxgraph.aws4.resourceIcon;resIcon=mxgraph.aws4.lambda;shadow=0;gradientColor=none;portConstraintRotation=0;snapToPoint=0;dropTarget=0;" vertex="1" parent="1">
          <mxGeometry x="400" y="200" width="78" height="78" as="geometry" />
        </mxCell>
        <mxCell id="54jklgDi4DltdrdWR9oT-13" style="edgeStyle=orthogonalEdgeStyle;rounded=0;orthogonalLoop=1;jettySize=auto;html=1;entryX=0.5;entryY=0;entryDx=0;entryDy=0;flowAnimation=1;shadow=0;" edge="1" parent="1" source="54jklgDi4DltdrdWR9oT-5" target="54jklgDi4DltdrdWR9oT-6">
          <mxGeometry relative="1" as="geometry" />
        </mxCell>
        <mxCell id="54jklgDi4DltdrdWR9oT-18" style="edgeStyle=orthogonalEdgeStyle;rounded=0;orthogonalLoop=1;jettySize=auto;html=1;flowAnimation=1;shadow=0;" edge="1" parent="1" source="54jklgDi4DltdrdWR9oT-5" target="54jklgDi4DltdrdWR9oT-3">
          <mxGeometry relative="1" as="geometry" />
        </mxCell>
        <mxCell id="54jklgDi4DltdrdWR9oT-5" value="" style="sketch=0;outlineConnect=0;fontColor=#232F3E;gradientColor=none;fillColor=#ED7100;strokeColor=none;dashed=0;verticalLabelPosition=bottom;verticalAlign=top;align=center;html=1;fontSize=12;fontStyle=0;aspect=fixed;pointerEvents=1;shape=mxgraph.aws4.lambda_function;" vertex="1" parent="1">
          <mxGeometry x="400" y="358" width="80" height="80" as="geometry" />
        </mxCell>
        <mxCell id="54jklgDi4DltdrdWR9oT-20" style="edgeStyle=orthogonalEdgeStyle;rounded=0;orthogonalLoop=1;jettySize=auto;html=1;flowAnimation=1;shadow=0;" edge="1" parent="1" source="54jklgDi4DltdrdWR9oT-6" target="54jklgDi4DltdrdWR9oT-5">
          <mxGeometry relative="1" as="geometry" />
        </mxCell>
        <mxCell id="54jklgDi4DltdrdWR9oT-6" value="" style="rounded=0;whiteSpace=wrap;html=1;rotation=-90;" vertex="1" parent="1">
          <mxGeometry x="505" y="368" width="150" height="60" as="geometry" />
        </mxCell>
        <mxCell id="54jklgDi4DltdrdWR9oT-7" value="" style="whiteSpace=wrap;html=1;aspect=fixed;" vertex="1" parent="1">
          <mxGeometry x="690" y="358" width="110" height="110" as="geometry" />
        </mxCell>
        <mxCell id="54jklgDi4DltdrdWR9oT-16" style="edgeStyle=orthogonalEdgeStyle;rounded=0;orthogonalLoop=1;jettySize=auto;html=1;entryX=-0.018;entryY=0.364;entryDx=0;entryDy=0;entryPerimeter=0;flowAnimation=1;shadow=0;" edge="1" parent="1" source="54jklgDi4DltdrdWR9oT-6" target="54jklgDi4DltdrdWR9oT-7">
          <mxGeometry relative="1" as="geometry" />
        </mxCell>
        <mxCell id="54jklgDi4DltdrdWR9oT-17" style="edgeStyle=orthogonalEdgeStyle;rounded=0;orthogonalLoop=1;jettySize=auto;html=1;entryX=0.4;entryY=1;entryDx=0;entryDy=0;entryPerimeter=0;flowAnimation=1;shadow=0;" edge="1" parent="1" source="54jklgDi4DltdrdWR9oT-7" target="54jklgDi4DltdrdWR9oT-6">
          <mxGeometry relative="1" as="geometry" />
        </mxCell>
        <mxCell id="54jklgDi4DltdrdWR9oT-21" value="User" style="text;strokeColor=none;align=center;fillColor=none;html=1;verticalAlign=middle;whiteSpace=wrap;rounded=0;" vertex="1" parent="1">
          <mxGeometry x="65" y="438" width="60" height="30" as="geometry" />
        </mxCell>
        <mxCell id="54jklgDi4DltdrdWR9oT-22" value="API Gateway" style="text;strokeColor=none;align=center;fillColor=none;html=1;verticalAlign=middle;whiteSpace=wrap;rounded=0;" vertex="1" parent="1">
          <mxGeometry x="250" y="280" width="60" height="30" as="geometry" />
        </mxCell>
        <mxCell id="54jklgDi4DltdrdWR9oT-23" value="Numbers API" style="text;strokeColor=none;align=center;fillColor=none;html=1;verticalAlign=middle;whiteSpace=wrap;rounded=0;" vertex="1" parent="1">
          <mxGeometry x="550" y="480" width="60" height="20" as="geometry" />
        </mxCell>
        <mxCell id="54jklgDi4DltdrdWR9oT-24" value="Lambda Function" style="text;strokeColor=none;align=center;fillColor=none;html=1;verticalAlign=middle;whiteSpace=wrap;rounded=0;" vertex="1" parent="1">
          <mxGeometry x="418" y="440" width="60" height="30" as="geometry" />
        </mxCell>
        <mxCell id="54jklgDi4DltdrdWR9oT-25" value="Number-Classifier-API" style="text;strokeColor=none;align=center;fillColor=none;html=1;verticalAlign=middle;whiteSpace=wrap;rounded=0;" vertex="1" parent="1">
          <mxGeometry x="230" y="440" width="100" height="30" as="geometry" />
        </mxCell>
        <mxCell id="54jklgDi4DltdrdWR9oT-30" value="Backend Server" style="text;strokeColor=none;align=center;fillColor=none;html=1;verticalAlign=middle;whiteSpace=wrap;rounded=0;" vertex="1" parent="1">
          <mxGeometry x="700" y="470" width="100" height="30" as="geometry" />
        </mxCell>
        <mxCell id="54jklgDi4DltdrdWR9oT-32" value="Lambda" style="text;strokeColor=none;align=center;fillColor=none;html=1;verticalAlign=middle;whiteSpace=wrap;rounded=0;" vertex="1" parent="1">
          <mxGeometry x="409" y="278" width="60" height="30" as="geometry" />
        </mxCell>
      </root>
    </mxGraphModel>
  </diagram>
</mxfile>
